<svg xmlns="http://www.w3.org/2000/svg" width="256" height="256"><path fill="#1976D2" fill-opacity=".016" fill-rule="evenodd" d="M0 128.004v128.004l128.25-.254 128.25-.254.254-127.75L257.008 0H0zm.485.496c0 70.4.119 99.053.265 63.672s.146-92.98 0-128S.485 58.1.485 128.5"/><path fill="#1976D2" fill-opacity=".071" fill-rule="evenodd" d="M194.698 86.096c-16.667 3.922-30.714 18.635-33.803 35.404-1.022 5.553-.62 16.447.739 19.987.426 1.112-.111 1.513-2.027 1.513H157v-13.43c0-13.167.044-13.437 2.25-13.75 2.215-.315 2.25-.544 2.25-14.82V86.5l-35.75-.263L90 85.975l-.067 17.262c-.06 15.437-.201 16.84-1.335 13.263-4.293-13.539-13.912-22.897-28.423-27.654-6.02-1.973-9.298-2.23-33.425-2.613L0 85.808V171h29.463c27.424 0 29.826-.143 34.708-2.067 11.302-4.455 20.439-13.912 23.9-24.737l1.821-5.696.054 16.25L90 171h73l.009-12.25.01-12.25 2.884 5.027c3.604 6.284 11.021 13.57 17.284 16.978l4.787 2.605 21.28-.305 21.28-.305 5.983-4.064c7.641-5.191 14.823-14.571 17.382-22.702l1.962-6.234.346 16.5c.19 9.075.349-2.85.353-26.5.004-26.507-.198-35.712-.527-24-.31 11.072-.813 17.476-1.204 15.348-2.522-13.722-15.478-27.184-30.684-31.884-6.857-2.119-22.209-2.572-29.447-.868M.458 128.5c.001 23.65.132 33.182.291 21.182.16-11.999.16-31.349 0-43S.458 104.85.458 128.5m194.793-36.955c-11.802 3.178-20.453 10.055-25.464 20.242-3.113 6.327-3.287 7.266-3.287 17.697 0 10.048.247 11.518 2.808 16.734 7.925 16.138 26.695 25.006 46.435 21.937 14.702-2.286 24.808-9.42 30.952-21.852 3.505-7.092 3.738-8.139 3.709-16.685-.023-7.049-.542-10.422-2.287-14.865-4.23-10.765-15.196-20.091-27.467-23.358-6.555-1.745-18.625-1.674-25.399.15M5 129.425V167l22.25-.015c23.371-.015 30.931-.975 38.531-4.893 15.719-8.103 22.888-26.655 17.349-44.891-2.878-9.474-8.647-15.864-18.902-20.935L56.612 92.5l-25.806-.325L5 91.851zm90 .075V167h63v-19h-38v-10h32v-18h-32v-10h36V92H95zm104.337-17.044c-5.412 3.32-8.337 9.213-8.337 16.795 0 6.952 1.222 10.315 5.276 14.518 7.744 8.029 21.075 6.068 26.692-3.926 3.059-5.442 3.333-14.558.607-20.149-4.395-9.013-15.796-12.418-24.238-7.238M30 129.5V148l6.75-.006c8.725-.007 13.484-1.382 17.753-5.131 8.735-7.669 6.807-24.13-3.463-29.56-3.539-1.872-5.916-2.303-12.697-2.303H30zm171.881-11.997c-5.221 2.837-7.386 11.959-4.487 18.898 1.937 4.635 5.155 6.599 10.813 6.599 3.815 0 5.391-.563 7.931-2.832 2.683-2.398 3.242-3.701 3.639-8.495.541-6.522-.887-10.828-4.547-13.707-2.97-2.336-9.486-2.562-13.349-.463M36 130.072v13.072l5.75-.678c9.447-1.114 12.43-4.102 12.558-12.581.133-8.81-4.06-12.885-13.258-12.885H36z"/><path fill="#1976D2" fill-opacity=".224" fill-rule="evenodd" d="M195.348 86.42c-13.564 3.29-24.971 12.339-30.639 24.306-3.11 6.564-3.209 7.184-3.209 20.024 0 13.075-.03 13.25-2.25 13.25-2.226 0-2.25-.148-2.25-14 0-13.333.095-14 2-14 1.908 0 2-.667 2-14.5V87H90l-.066 17.75c-.065 17.482-.088 17.667-1.535 12.283-2.756-10.254-10.407-19.469-20.346-24.506C58.372 87.621 53.623 87 25.79 87H0v84.108l30.25-.304 30.25-.304 5.692-2.795c11.194-5.497 19.296-14.926 22.246-25.889 1.395-5.186 1.432-4.894 1.496 11.934L90 171h73l.047-12.75.046-12.75 2.56 4.922c3.346 6.432 11.703 14.711 18.147 17.977 4.995 2.531 5.647 2.601 24.2 2.601 18.426 0 19.235-.085 24.069-2.535 10.748-5.446 19.927-16.979 22.17-27.854 1.238-6 1.271-5.785 1.796 11.889.32 10.765.534.918.533-24.5-.002-27.273-.193-35.514-.535-23-.379 13.86-.759 18.233-1.316 15.119-1.198-6.706-5.333-14.537-10.88-20.607-10.905-11.932-30.955-17.345-48.489-13.092M.458 129c0 23.375.131 32.938.291 21.25.16-11.687.16-30.812 0-42.5S.458 105.625.458 129m200.493-38.928c-9.374 1.361-16.518 4.633-22.783 10.433-7.176 6.644-10.768 13.127-12.335 22.26-4.359 25.422 14.868 46.27 42.627 46.223 17.713-.03 32.386-8.891 39.36-23.77 2.347-5.007 2.68-6.961 2.68-15.718 0-9.159-.267-10.563-3.174-16.701-7.991-16.866-25.99-25.687-46.375-22.727M5 129v38l23.25-.024c12.788-.014 25.223-.48 27.635-1.036 12.166-2.805 23.089-11.939 27.137-22.693 1.829-4.858 2.102-7.293 1.765-15.747-.338-8.458-.82-10.815-3.127-15.284C76.112 101.47 65.403 94.189 52 92.052c-3.575-.57-15.612-1.04-26.75-1.044L5 91zm90 0v38h63v-19h-38v-10h32v-17.949l-15.75-.276-15.75-.275-.306-4.227-.307-4.227 18.307-.273 18.306-.273.286-9.75.286-9.75H95zm108.5-18.282c-3.789.92-8.742 5.576-10.742 10.096-1.548 3.501-1.884 5.856-1.477 10.353.981 10.818 6.848 16.833 16.417 16.833 9.848 0 16.294-5.854 17.096-15.526.657-7.927-.469-12.109-4.449-16.514-4.499-4.979-10.386-6.811-16.845-5.242M31 128.875V147h8.099c12.757 0 17.837-3.41 19.828-13.311 1.789-8.897-1.051-16.09-7.946-20.127-2.309-1.352-5.829-2.07-11.645-2.375L31 110.749zm170.912-11.595c-4.356 2.936-5.879 6.053-5.897 12.069-.02 6.372 2.322 11.109 6.463 13.074 4.108 1.949 6.611 1.984 10.988.156 9.374-3.917 9.325-21.603-.073-26.063-4.434-2.104-7.531-1.898-11.481.764M35 129.5V143h4.532c5.353 0 10.192-1.853 12.968-4.967 1.55-1.739 2-3.657 2-8.533s-.45-6.794-2-8.533C49.724 117.853 44.885 116 39.532 116H35z"/><path fill="#1976D2" fill-opacity=".215" fill-rule="evenodd" d="M198 86.081c-13.932 2.457-26.405 11.89-32.782 24.792-3.613 7.31-3.718 7.837-3.718 18.575 0 10.36.2 11.475 3.201 17.811 4.106 8.667 11.85 16.861 19.594 20.73C190.319 171 190.32 171 208.193 171c17.338 0 18.03-.079 23.09-2.642 7.543-3.82 11.341-6.987 15.732-13.118 6.086-8.5 8.294-16.452 7.798-28.083-.356-8.335-.853-10.571-3.627-16.33-7.338-15.233-21.347-24.115-39.802-25.237-4.336-.264-10.359-.043-13.384.491M1 129v42h27.032c24.718 0 27.559-.178 33.196-2.077 12.645-4.26 22.968-14.11 26.203-25.004 6.401-21.553-1.327-41.78-19.458-50.933-9.983-5.039-16.573-5.949-43.223-5.969L1 87zm90 0v42h72l-.014-11.25c-.021-17.381 2.009-15.75-19.603-15.75-11.589 0-18.383-.37-18.383-1 0-.625 6-1 16-1h16v-13.5c0-12.833.099-13.5 2-13.5 1.905 0 2-.667 2-14V87H91zm107.108-38.918c-12.364 2.428-24.265 11.426-29.668 22.431-2.686 5.471-2.94 6.893-2.94 16.487 0 9.351.299 11.139 2.735 16.338 6.425 13.716 17.268 21.33 33.676 23.649 23.938 3.384 46.031-11.775 49.041-33.649 3.995-29.031-22.019-51.31-52.844-45.256M5 129.5V168l21.25-.017c14.399-.012 23.392-.472 27.894-1.426 16.285-3.452 26.67-12.863 30.442-27.586 4.367-17.048-3.408-35.333-18.075-42.51-9.827-4.807-14.302-5.436-38.761-5.449L5 91zm90 .014v38.514l31.75-.264 31.75-.264.286-9.728.286-9.729-19.286-.271-19.286-.272v-9l16.25-.275 16.25-.275V119h-33v-8h37V91H95zm103.875-16.075c-10.602 7.204-9.608 27.123 1.625 32.561 8.039 3.892 17.175 1.478 21.649-5.719 1.884-3.03 2.351-5.172 2.351-10.781 0-8.106-2.071-12.62-7.452-16.247-4.796-3.231-13.271-3.145-18.173.186M31 129.599v17.6l8.928-.35c9.588-.375 12.26-1.541 16.479-7.193 3.171-4.246 3.375-14.96.383-20.052-3.393-5.773-7.613-7.604-17.524-7.604H31zm170.365-12.68c-8.813 5.374-7.763 22.188 1.628 26.078 3.84 1.591 10.511.752 13.223-1.662 6.57-5.851 6.181-18.731-.73-24.167-3.493-2.748-9.839-2.86-14.121-.249M35 129.5V143h5.55c9.789 0 14.45-4.355 14.45-13.5S50.339 116 40.55 116H35z"/></svg>